<svg id="icons" enable-background="new 0 0 64 64" height="512" viewBox="0 0 64 64" width="512" xmlns="http://www.w3.org/2000/svg"><path d="m37.739 10.307c-.092-.093-.203-.166-.326-.217-.122-.051-.252-.077-.382-.077h-2c-.553 0-1 .447-1 1v2.998 3.998 2.998c0 .553.447 1 1 1h2c.13 0 .26-.026.382-.077.123-.051.234-.124.326-.217l2.704-2.704h4.397l-1.804 10.822c-.005.028.005.055.003.082-.003.028-.017.053-.017.082 0 .041.019.075.023.115.008.067.018.131.039.194s.048.117.079.174c.031.055.063.105.104.153.043.051.089.092.141.134.049.038.097.073.152.103.061.032.123.053.189.072.038.011.068.034.108.041.055.01.109.014.163.014h.001 2.998.002c.118-.001.234-.028.346-.07.022-.009.045-.015.066-.025.101-.045.193-.106.275-.186.017-.016.028-.033.044-.05.033-.037.07-.071.099-.114l7.699-11.541h5.435c.002 0 .003.001.005.001 1.654 0 3-1.346 3-3s-1.346-3-3-3c-.002 0-.003.001-.005.001h-5.415l-7.716-11.569c-.018-.027-.046-.041-.066-.065-.045-.056-.093-.104-.148-.148-.048-.038-.095-.07-.147-.099-.059-.032-.117-.055-.182-.075-.064-.02-.126-.031-.192-.038-.033-.004-.062-.02-.096-.02h-2.998c-.028 0-.052.014-.079.016-.029.003-.056-.007-.085-.002-.04.007-.07.03-.107.041-.067.02-.13.04-.19.072-.056.029-.104.064-.152.103-.052.041-.098.083-.141.134-.04.048-.072.099-.104.153-.031.057-.059.111-.079.174-.021.063-.031.127-.039.194-.005.04-.023.074-.023.115 0 .029.014.054.017.082.002.027-.008.054-.003.082l1.809 10.85h-4.402zm-1.708 1.706h.586l.998.998h-1.584zm.586 7.994h-.586v-.998h1.584zm9.869 8.988h-1.282l1.664-9.986h6.28zm0-25.998 6.682 10.014h-6.295l-1.669-10.014zm14.506 12.014c.001 0 .002-.001.002-.001.551.002.998.449.998 1s-.447.998-.998 1c0 0-.001-.001-.002-.001h-24.961v-1.998z"/><path d="m.008 42.005v19.998c0 .553.447 1 1 1h21c.553 0 1-.447 1-1v-19.998c0-.553-.447-1-1-1h-21c-.553 0-1 .447-1 1zm10 1h2v1.998h-2zm-8 0h6v2.998c0 .553.447 1 1 1h4c.553 0 1-.447 1-1 0-.018-.009-.032-.01-.05.001-.018.01-.032.01-.05v-2.898h7v17.998h-19z"/><path d="m14.012 17.013c.011 0 .019-.006.029-.006h15.969c.553 0 1-.447 1-1s-.447-1-1-1h-15.998c-.014 0-.025.007-.039.008-5.495.021-9.961 4.497-9.961 9.998 0 5.515 4.486 10.001 10 10.001.016 0 .028-.008.044-.009h35.958c.008 0 .015-.005.023-.005 4.396.013 7.967 3.592 7.967 7.99 0 4.406-3.584 7.99-7.99 7.99-.039 0-.073.018-.111.022h-22.893c-.553 0-1 .447-1 1s.447 1 1 1h23.004c.053 0 .099-.022.148-.03 5.44-.08 9.842-4.523 9.842-9.982 0-5.509-4.481-9.991-9.99-9.991-.011 0-.019.006-.029.006h-35.973c-.013 0-.022.007-.035.007-4.395-.019-7.965-3.599-7.965-7.999 0-4.411 3.589-8 8-8z"/><path d="m10.01 55.003h-6.002c-.553 0-1 .447-1 1s.447 1 1 1h6.002c.553 0 1-.447 1-1s-.447-1-1-1z"/><path d="m7.008 58.003h-3c-.553 0-1 .447-1 1s.447 1 1 1h3c.553 0 1-.447 1-1s-.447-1-1-1z"/></svg>